<svg width="61" height="57" viewBox="0 0 61 57" fill="none" xmlns="http://www.w3.org/2000/svg">
<path d="M55.7534 14.0504C54.1111 14.5996 53.1412 14.822 50.7202 14.0504C43.0844 10.3836 37.3576 8.07137 25.1669 3.5968C21.6018 3.4282 19.4062 3.38145 14.3261 3.5968C10.1793 5.37178 7.99822 6.19126 4.25964 7.46851C2.7206 6.97881 2.16424 6.46917 2.71096 4.37114C7.62389 2.0828 10.4321 1.22998 15.4876 0.112259C18.4877 -0.0345995 20.2475 -0.040142 23.6182 0.112259C36.5846 1.60451 42.9552 2.71253 51.4945 5.53266C55.1549 6.31704 57.3021 5.53266 58.8508 5.53266C60.3995 5.53266 60.3995 8.24286 60.3995 8.24286C59.2118 10.6342 58.2436 11.843 55.7534 14.0504Z" fill="url(#paint0_linear_705_3937)"/>
<path d="M16.8733 26.4405C15.3713 26.9694 14.4698 27.0557 12.6144 26.4405C9.32446 22.9751 7.91362 21.7793 6.41969 21.4072C4.62484 21.6944 4.51259 22.3898 4.48383 23.7303C6.60507 27.7935 8.76294 30.0839 13.7759 34.1839C10.9958 38.5695 8.27672 39.9956 0.999293 40.3786C-0.725364 42.1309 -0.140616 42.8324 2.16081 43.8632C9.52394 43.0074 13.0468 41.61 17.6477 36.5069C19.2241 38.4788 20.7383 39.2409 23.8424 40.3786C19.9726 44.6651 17.2744 46.7408 11.8401 50.0579C11.3345 52.3918 12.1687 52.7889 14.5503 52.7681C21.7779 48.6864 24.8765 46.0761 27.3269 40.3786C30.6165 40.9191 31.9635 40.8901 34.296 40.3786C33.1299 46.5873 31.0409 49.4134 26.1654 53.9296C25.7086 56.959 27.0431 56.9327 29.65 56.6398C35.1271 50.9408 37.1344 47.436 37.7806 40.3786C41.3965 40.2128 43.0796 39.7928 45.524 38.8299C46.0096 43.9579 45.4876 46.6679 43.201 51.2194C43.6461 52.6786 44.2797 53.1367 46.6855 52.7681C49.2733 47.751 50.0561 44.5306 49.0085 37.2812C51.8412 36.4308 53.1494 35.772 54.8161 34.1839C56.5487 38.4059 56.4967 41.3319 56.3648 46.5734C58.0387 48.9932 58.8405 48.2912 60.2365 46.5734C60.5668 41.0139 61.2653 38.0997 57.9135 31.0865C59.0077 30.3895 59.5705 29.9068 60.2365 28.3763C60.0582 26.927 59.9189 26.1523 57.9135 26.4405C56.0846 28.5828 55.5252 28.7408 54.8161 28.3763C49.725 24.6752 46.4626 23.3963 40.1036 22.1816C34.1334 21.2616 31.0869 21.2901 26.1654 22.1816C22.3888 22.9169 20.3477 23.7766 16.8733 26.4405Z" fill="#855744"/>
<defs>
<linearGradient id="paint0_linear_705_3937" x1="60.531" y1="6.98429" x2="0.000427419" y2="6.98429" gradientUnits="userSpaceOnUse">
<stop stop-color="#855744"/>
<stop offset="1" stop-color="#B59182"/>
</linearGradient>
</defs>
</svg>
