<svg width="42" height="57" viewBox="0 0 42 57" fill="none" xmlns="http://www.w3.org/2000/svg">
<path d="M10.8069 2C10.8069 0.89543 9.91146 0 8.80689 0C7.70232 0 6.80689 0.89543 6.80689 2H10.8069ZM4.06496 4.74194C2.96039 4.74194 2.06496 5.63737 2.06496 6.74194C2.06496 7.8465 2.96039 8.74194 4.06496 8.74194V4.74194ZM13.2101 8.74194C14.3147 8.74194 15.2101 7.8465 15.2101 6.74194C15.2101 5.63737 14.3147 4.74194 13.2101 4.74194V8.74194ZM3.04883 11.5161C1.94426 11.5161 1.04883 12.4116 1.04883 13.5161C1.04883 14.6207 1.94426 15.5161 3.04883 15.5161V11.5161ZM14.565 15.5161C15.6695 15.5161 16.565 14.6207 16.565 13.5161C16.565 12.4116 15.6695 11.5161 14.565 11.5161V15.5161ZM4.06496 18.2903C2.96039 18.2903 2.06496 19.1858 2.06496 20.2903C2.06496 21.3949 2.96039 22.2903 4.06496 22.2903V18.2903ZM13.2101 22.2903C14.3147 22.2903 15.2101 21.3949 15.2101 20.2903C15.2101 19.1858 14.3147 18.2903 13.2101 18.2903V22.2903ZM6.80689 2V6.74194H10.8069V2H6.80689ZM6.80689 6.74194V31.4677H10.8069V6.74194H6.80689ZM4.06496 8.74194H13.2101V4.74194H4.06496V8.74194ZM3.04883 15.5161H14.565V11.5161H3.04883V15.5161ZM4.06496 22.2903H13.2101V18.2903H4.06496V22.2903Z" fill="#B979A7"/>
<rect y="31.1289" width="17.6129" height="25.0645" rx="2" fill="#855744"/>
<path d="M24.3867 20.2578C24.3867 19.1532 25.2821 18.2578 26.3867 18.2578H39.9996C41.1042 18.2578 41.9996 19.1532 41.9996 20.2578V45.3546H24.3867V20.2578Z" fill="#855744"/>
<path d="M24.3867 48.7422H41.9996V54.1938C41.9996 55.2984 41.1042 56.1938 39.9996 56.1938H26.3867C25.2821 56.1938 24.3867 55.2984 24.3867 54.1938V48.7422Z" fill="#855744"/>
</svg>
