<svg width="52" height="52" viewBox="0 0 52 52" fill="none" xmlns="http://www.w3.org/2000/svg">
<path d="M47.3863 40.766C49.7057 37.4129 51.2034 33.5614 51.7583 29.5228C52.3131 25.4841 51.9097 21.3717 50.5804 17.5178C49.2512 13.6638 47.0335 10.1765 44.1066 7.33759C41.1797 4.49867 37.6256 2.38782 33.7316 1.17559C29.8376 -0.0366344 25.7128 -0.316222 21.6907 0.359423C17.6686 1.03507 13.862 2.64699 10.5784 5.06494C7.29475 7.48288 4.62631 10.639 2.78868 14.2783C0.951041 17.9176 -0.00424177 21.9379 2.58424e-05 26.0144C-0.00743981 31.2875 1.60283 36.436 4.61375 40.766L4.69022 40.9188L4.79218 41.0462C7.19486 44.4324 10.3742 47.194 14.064 49.0997C17.7538 51.0055 21.8467 52 26 52C30.1533 52 34.2462 51.0055 37.9361 49.0997C41.6259 47.194 44.8052 44.4324 47.2079 41.0462L47.3098 40.9188L47.3863 40.766ZM48.9412 26.0144C48.9389 30.1997 47.7931 34.3049 45.6275 37.887L27.5294 25.2246V3.13547C33.3318 3.53504 38.767 6.11768 42.7402 10.3631C46.7134 14.6085 48.9292 20.2012 48.9412 26.0144ZM24.4706 3.13547V25.2246L6.37257 37.887C4.3338 34.52 3.19639 30.6852 3.06979 26.7517C2.94318 22.8181 3.83166 18.9182 5.6497 15.4272C7.46775 11.9362 10.1542 8.97171 13.4504 6.81896C16.7467 4.66621 20.5418 3.39769 24.4706 3.13547ZM8.1314 40.3838L24.4706 28.9443V48.8934C21.3073 48.6777 18.2228 47.8104 15.4109 46.3459C12.5991 44.8815 10.1207 42.8516 8.1314 40.3838ZM27.5294 48.8934V28.9443L43.8686 40.3838C41.8794 42.8516 39.401 44.8815 36.5891 46.3459C33.7773 47.8104 30.6928 48.6777 27.5294 48.8934Z" fill="#855744"/>
</svg>
